<?xml version="1.0" standalone="no"?><!DOCTYPE svg PUBLIC "-//W3C//DTD SVG 1.1//EN" "http://www.w3.org/Graphics/SVG/1.1/DTD/svg11.dtd"><svg t="1716731128096" class="icon" viewBox="0 0 1481 1024" version="1.1" xmlns="http://www.w3.org/2000/svg" p-id="2322" xmlns:xlink="http://www.w3.org/1999/xlink" width="185.125" height="128"><path d="M109.542059 405.048889c-2.82624 0-3.536213-1.415396-2.120818-3.536213l14.845724-19.08736a10.126222 10.126222 0 0 1 7.773298-3.536214h252.350009c2.82624 0 3.536213 2.120818 2.120818 4.241636l-12.014934 18.377386a10.77248 10.77248 0 0 1-7.067875 4.241636zM2.80485 470.061511c-2.82624 0-3.536213-1.415396-2.120818-3.536213l14.845724-19.08736a10.126222 10.126222 0 0 1 7.773298-3.536214H345.635499a3.249493 3.249493 0 0 1 3.536213 4.241636L343.514681 465.123556a6.180409 6.180409 0 0 1-6.371556 4.241635zM173.867463 535.092338c-2.82624 0-3.536213-2.120818-2.120818-4.241636l9.894116-17.671964a9.375289 9.375289 0 0 1 7.067875-4.241636H330.084352c2.82624 0 4.241636 2.120818 4.241636 4.947058l-1.415396 16.966542a5.311147 5.311147 0 0 1-4.947058 4.947058zM907.588494 392.305778c-44.532622 11.309511-74.929493 19.792782-118.752142 31.102293-10.604089 2.82624-11.309511 3.536213-20.48-7.067875-10.604089-12.014933-18.377387-19.792782-33.223111-26.851556-44.532622-21.9136-87.649849-15.551147-127.940836 10.604089-48.064284 31.102293-72.817778 77.04576-72.098702 134.303289 0.705422 56.547556 39.594667 103.200996 95.427698 110.978844 48.064284 6.371556 88.355271-10.604089 120.149333-46.65344 6.371556-7.773298 12.014933-16.256569 19.08736-26.155235H633.324885c-14.845724 0-18.377387-9.188693-13.430329-21.203627 9.188693-21.9136 26.155236-58.668373 36.049352-77.04576a19.08736 19.08736 0 0 1 17.671964-11.309511h257.297067c-1.415396 19.08736-1.415396 38.170169-4.241636 57.257529a301.461049 301.461049 0 0 1-57.962951 138.544924c-50.895076 67.137991-117.341298 108.839822-201.454933 120.149334-69.272462 9.188693-133.597867-4.241636-190.145423-46.65344a222.025956 222.025956 0 0 1-89.770666-156.922312c-9.188693-77.04576 13.430329-146.318222 60.074666-207.111964C497.606201 302.535111 564.052423 260.83328 645.326165 245.987556c66.446222-12.014933 130.061653-4.241636 187.319183 34.633955a221.575396 221.575396 0 0 1 81.997368 99.669333c4.255289 6.362453 1.424498 9.898667-7.054222 12.014934z" fill="#2DBCAF" p-id="2323"></path><path d="M1141.556565 783.200711c-64.325404-1.415396-122.993778-19.792782-172.487111-62.204587a221.689173 221.689173 0 0 1-76.340338-136.424106c-12.743111-79.876551 9.188693-150.559858 57.257529-213.469867 51.600498-67.857067 113.805084-103.200996 197.91872-118.04672 72.098702-12.743111 139.96032-5.657031 201.454934 36.049351 55.842133 38.170169 90.476089 89.770667 99.669333 157.627734 12.014933 95.427698-15.551147 173.17888-81.287396 239.625102a323.902578 323.902578 0 0 1-169.647217 90.476089c-19.073707 3.540764-38.156516 4.246187-56.538454 6.367004z m168.231823-285.568569a203.434667 203.434667 0 0 0-2.120818-23.324444c-12.743111-69.977884-77.04576-109.563449-144.197405-94.012302-65.736249 14.845724-108.148053 56.547556-123.6992 122.993777a116.412871 116.412871 0 0 0 65.030827 133.597867c38.875591 16.966542 77.755733 14.845724 115.22048-4.241636 55.837582-28.986027 86.234453-74.224071 89.766116-135.013262z" fill="#2DBCAF" p-id="2324"></path></svg>