<?xml version="1.0" encoding="UTF-8"?>
<svg id="_图层_1" data-name="图层 1" xmlns="http://www.w3.org/2000/svg" xmlns:xlink="http://www.w3.org/1999/xlink" viewBox="0 0 811 755">
  <defs>
    <style>
      .cls-1 {
        font-family: ROGFonts-Regular, 'ROG Fonts';
        font-size: 218.04px;
      }

      .cls-1, .cls-2, .cls-3 {
        fill: #2dbcaf;
      }

      .cls-3 {
        font-family: AdobeSongStd-Light-GBpc-EUC-H, 'Adobe Song Std';
        font-size: 185.9px;
        font-weight: 300;
      }

      .cls-4 {
        clip-path: url(#clippath);
      }

      .cls-5 {
        fill: none;
      }
    </style>
    <clipPath id="clippath">
      <rect class="cls-5" x="-209" y="48" width="992.84" height="434.88"/>
    </clipPath>
  </defs>
  <g class="cls-4">
    <path class="cls-2" d="M411.47,169.2c-30.44,9.05-51.23,15.83-81.18,24.88-7.25,2.26-7.73,2.83-14-5.66-7.25-9.61-12.56-15.83-22.71-21.48-30.44-17.53-59.92-12.44-87.46,8.48-32.86,24.88-49.78,61.64-49.29,107.44,.48,45.24,27.07,82.56,65.24,88.78,32.86,5.1,60.4-8.48,82.14-37.32,4.36-6.22,8.21-13.01,13.05-20.93h-93.27c-10.15,0-12.56-7.35-9.18-16.96,6.28-17.53,17.88-46.94,24.64-61.64,2.12-5.57,6.87-9.12,12.08-9.05h175.9c-.97,15.27-.97,30.54-2.9,45.8-5.01,40.27-18.64,78.39-39.63,110.84-34.79,53.71-80.22,87.07-137.72,96.12-47.36,7.35-91.33-3.39-129.99-37.32-34.75-29.76-57.06-75.4-61.37-125.54-6.28-61.64,9.18-117.05,41.07-165.69,34.31-52.59,79.74-85.95,135.3-97.83,45.42-9.61,88.91-3.4,128.06,27.71,25.03,19.48,44.54,47.23,56.06,79.73,2.91,5.09,.97,7.92-4.82,9.61h0Zm0,0"/>
    <path class="cls-2" d="M571.42,481.92c-43.98-1.13-84.09-15.83-117.92-49.76-28.14-27.76-46.69-66.55-52.19-109.14-8.71-63.9,6.28-120.45,39.14-170.78,35.28-54.29,77.8-82.56,135.3-94.44,49.29-10.19,95.68-4.52,137.72,28.84,38.17,30.54,61.85,71.82,68.14,126.1,8.21,76.34-10.63,138.55-55.57,191.7-31.51,37.3-71.95,62.55-115.97,72.38-13.04,2.83-26.09,3.4-38.65,5.09h0Zm115.01-228.45c-.18-6.25-.66-12.48-1.45-18.66-8.71-55.98-52.67-87.65-98.58-75.21-44.94,11.88-73.93,45.24-84.56,98.4-9.06,43.5,9.61,88.39,44.46,106.88,26.58,13.57,53.16,11.88,78.77-3.39,38.17-23.19,58.95-59.38,61.37-108.01h0Zm0,0"/>
  </g>
  <text class="cls-1" transform="translate(565.34 360.24) rotate(-1.99) scale(.29 1) skewX(-1.7)"><tspan x="0" y="0">W</tspan></text>
  <text class="cls-3" transform="translate(41.2 646.59) scale(6.32 1)"><tspan x="0" y="0">T</tspan></text>
</svg>